<svg xmlns="http://www.w3.org/2000/svg" width="181.424" height="126.936" viewBox="0 0 181.424 126.936"><path d="M51.887,111.335a9.039,9.039,0,0,1-6.018-2.284L-.008,68.269l48.427-43.05A9.065,9.065,0,0,1,60.461,38.774L27.288,68.269,57.916,95.486a9.072,9.072,0,0,1-6.018,15.85Zm81.1-.017,48.427-43.05L135.538,27.486A9.065,9.065,0,0,0,123.5,41.04l30.628,27.228L120.952,97.752a9.068,9.068,0,0,0,12.036,13.566ZM90.579,124.164l18.133-108.8a9.063,9.063,0,1,0-17.878-2.986L72.7,121.178a9.066,9.066,0,0,0,7.452,10.438,9.616,9.616,0,0,0,1.5.119,9.068,9.068,0,0,0,8.931-7.571Z" transform="translate(.008 -4.8)"/></svg>